<svg xmlns="http://www.w3.org/2000/svg" version="1.1" xmlns:xlink="http://www.w3.org/1999/xlink" xmlns:svgjs="http://svgjs.dev/svgjs" width="2000" height="1500" viewBox="0 0 2000 1500"><rect width="2000" height="1500" fill="#929395"></rect><g transform="matrix(0.75,0,0,0.75,249.090909090909,500.3931768963955)"><svg viewBox="0 0 396 132" data-background-color="#929395" preserveAspectRatio="xMidYMid meet" height="666" width="2000" xmlns="http://www.w3.org/2000/svg" xmlns:xlink="http://www.w3.org/1999/xlink"><g id="tight-bounds" transform="matrix(1,0,0,1,0.2400000000000091,-0.03783653718559776)"><svg viewBox="0 0 395.52 132.07567307437117" height="132.07567307437117" width="395.52"><g><svg viewBox="0 0 601.9240193857213 200.99999999999997" height="132.07567307437117" width="395.52"><g><rect width="8.342758477084375" height="200.99999999999997" x="231.87637683474787" y="0" fill="#375a82" opacity="1" stroke-width="0" stroke="transparent" fill-opacity="1" class="rect-qz-0" data-fill-palette-color="primary" rx="1%" id="qz-0" data-palette-color="#375a82"></rect></g><g transform="matrix(1,0,0,1,262.05881718901645,0.4999999999999858)"><svg viewBox="0 0 339.8652021967049 200" height="200" width="339.8652021967049"><g id="textblocktransform"><svg viewBox="0 0 339.8652021967049 200" height="200" width="339.8652021967049" id="textblock"><g><svg viewBox="0 0 339.8652021967049 200" height="200" width="339.8652021967049"><g transform="matrix(1,0,0,1,0,0)"><svg width="339.8652021967049" viewBox="1.300000000000001 -36.459998400035985 136.15 77.119998400036" height="200" data-palette-color="#375a82"><svg></svg><svg></svg><g class="wordmark-text-0" data-fill-palette-color="primary" id="text-0"><path d="M8.95 0.15v0c-0.333 0-0.567-0.117-0.7-0.35-0.133-0.233-0.2-0.483-0.2-0.75v0c0.033-0.567 0.167-0.883 0.4-0.95 0.233-0.067 0.517-0.1 0.85-0.1v0c1.067 0 1.817-0.193 2.25-0.58 0.433-0.38 0.71-0.863 0.83-1.45 0.113-0.58 0.17-1.187 0.17-1.82v0-23.85h-3.45c-1.133 0.033-2.017 0.273-2.65 0.72-0.633 0.453-1.1 1.153-1.4 2.1-0.3 0.953-0.567 2.18-0.8 3.68v0c-0.033 0.3-0.24 0.523-0.62 0.67-0.387 0.153-0.763 0.23-1.13 0.23v0c-0.233 0-0.49-0.083-0.77-0.25-0.287-0.167-0.43-0.417-0.43-0.75v0l0.15-7.05c0-0.467 0.133-0.783 0.4-0.95 0.267-0.167 0.583-0.25 0.95-0.25v0h24.45c0.367 0 0.677 0.083 0.93 0.25 0.247 0.167 0.37 0.483 0.37 0.95v0l0.2 7.05c0 0.333-0.14 0.583-0.42 0.75-0.287 0.167-0.563 0.25-0.83 0.25v0c-0.333 0-0.683-0.077-1.05-0.23-0.367-0.147-0.583-0.37-0.65-0.67v0c-0.233-1.5-0.507-2.727-0.82-3.68-0.32-0.947-0.787-1.647-1.4-2.1-0.62-0.447-1.513-0.687-2.68-0.72v0h-3.4v23.85c0.033 0.633 0.1 1.24 0.2 1.82 0.1 0.587 0.377 1.07 0.83 1.45 0.447 0.387 1.187 0.58 2.22 0.58v0c0.333 0 0.617 0.033 0.85 0.1 0.233 0.067 0.367 0.383 0.4 0.95v0c0 0.267-0.067 0.517-0.2 0.75-0.133 0.233-0.367 0.35-0.7 0.35v0c-1.067-0.067-2.077-0.107-3.03-0.12-0.947-0.02-1.903-0.03-2.87-0.03v0c-2 0-4.083 0.05-6.25 0.15zM31.05 0.15v0c-0.233 0-0.423-0.11-0.57-0.33-0.153-0.213-0.23-0.437-0.23-0.67v0c0.067-0.5 0.2-0.777 0.4-0.83 0.2-0.047 0.467-0.07 0.8-0.07v0c0.933 0 1.567-0.16 1.9-0.48 0.333-0.313 0.527-0.737 0.58-1.27 0.047-0.533 0.07-1.083 0.07-1.65v0-11.45c0-0.6-0.023-1.16-0.07-1.68-0.053-0.513-0.247-0.93-0.58-1.25-0.333-0.313-0.967-0.47-1.9-0.47v0c-0.3 0-0.573-0.043-0.82-0.13-0.253-0.08-0.38-0.37-0.38-0.87v0c0-0.5 0.267-0.8 0.8-0.9v0c1.533-0.233 2.71-0.467 3.53-0.7 0.813-0.233 1.43-0.433 1.85-0.6 0.413-0.167 0.787-0.267 1.12-0.3v0c0.267-0.033 0.493 0.017 0.68 0.15 0.18 0.133 0.27 0.4 0.27 0.8v0 3.1h0.15c1.133-1.1 2.3-2.01 3.5-2.73 1.2-0.713 2.3-1.07 3.3-1.07v0c1.167 0 2.06 0.433 2.68 1.3 0.613 0.867 0.92 1.783 0.92 2.75v0c0 0.833-0.267 1.64-0.8 2.42-0.533 0.787-1.333 1.18-2.4 1.18v0c-0.533 0-0.957-0.11-1.27-0.33-0.32-0.213-0.497-0.37-0.53-0.47v0c0-0.067 0.16-0.267 0.48-0.6 0.313-0.333 0.47-0.75 0.47-1.25v0c0-0.6-0.157-1.083-0.47-1.45-0.32-0.367-0.747-0.55-1.28-0.55v0c-0.567 0-1.29 0.283-2.17 0.85-0.887 0.567-1.73 1.25-2.53 2.05v0 12.2c0 0.567 0.027 1.117 0.08 1.65 0.047 0.533 0.247 0.957 0.6 1.27 0.347 0.32 0.987 0.48 1.92 0.48v0c0.3 0 0.56 0.023 0.78 0.07 0.213 0.053 0.337 0.33 0.37 0.83v0c0 0.233-0.067 0.457-0.2 0.67-0.133 0.22-0.333 0.33-0.6 0.33v0c-0.967-0.067-1.857-0.107-2.67-0.12-0.82-0.02-1.68-0.03-2.58-0.03v0c-0.9 0-1.75 0.01-2.55 0.03-0.8 0.013-1.683 0.053-2.65 0.12zM58.25 0.6v0c-2.033 0-3.657-0.583-4.87-1.75-1.22-1.167-1.83-2.567-1.83-4.2v0c0-1.7 0.443-3.033 1.33-4 0.88-0.967 2.047-1.683 3.5-2.15 1.447-0.467 3.03-0.783 4.75-0.95 1.713-0.167 3.387-0.3 5.02-0.4v0-3.95c0-1.567-0.393-2.793-1.18-3.68-0.78-0.88-2.103-1.32-3.97-1.32v0c-0.933 0-1.807 0.3-2.62 0.9-0.82 0.6-1.23 1.467-1.23 2.6v0c0 0.533 0.133 0.983 0.4 1.35 0.267 0.367 0.533 0.65 0.8 0.85 0.267 0.2 0.4 0.333 0.4 0.4v0c0 0.133-0.19 0.373-0.57 0.72-0.387 0.353-0.913 0.53-1.58 0.53v0c-1.033 0-1.833-0.383-2.4-1.15-0.567-0.767-0.85-1.617-0.85-2.55v0c0-1.267 0.39-2.267 1.17-3 0.787-0.733 1.797-1.267 3.03-1.6 1.233-0.333 2.483-0.5 3.75-0.5v0c1.5 0 2.957 0.183 4.37 0.55 1.42 0.367 2.59 1.067 3.51 2.1 0.913 1.033 1.37 2.583 1.37 4.65v0 11.65c0.033 0.333 0.117 0.733 0.25 1.2 0.133 0.467 0.393 0.873 0.78 1.22 0.38 0.353 0.903 0.53 1.57 0.53v0c0.233 0 0.417 0.04 0.55 0.12 0.133 0.087 0.2 0.313 0.2 0.68v0c0 0.3-0.167 0.533-0.5 0.7-0.333 0.167-0.717 0.283-1.15 0.35-0.433 0.067-0.8 0.1-1.1 0.1v0c-1.233 0-2.333-0.36-3.3-1.08-0.967-0.713-1.533-1.703-1.7-2.97v0c-0.733 1.333-1.823 2.34-3.27 3.02-1.453 0.687-2.997 1.03-4.63 1.03zM59.85-2.1v0c1.133 0 2.177-0.283 3.13-0.85 0.947-0.567 1.713-1.343 2.3-2.33 0.58-0.98 0.87-2.07 0.87-3.27v0-2.85c-3.433 0.233-5.883 0.783-7.35 1.65-1.467 0.867-2.2 2.283-2.2 4.25v0c0 2.267 1.083 3.4 3.25 3.4zM88.65 0.5h-2.1c-0.833-1.833-1.667-3.833-2.5-6-0.833-2.167-1.65-4.283-2.45-6.35-0.8-2.067-1.567-3.867-2.3-5.4v0c-0.533-1.233-1.05-2.11-1.55-2.63-0.5-0.513-1.25-0.837-2.25-0.97v0c-0.433-0.067-0.723-0.133-0.87-0.2-0.153-0.067-0.247-0.317-0.28-0.75v0c-0.033-0.567 0.127-0.877 0.48-0.93 0.347-0.047 0.77-0.087 1.27-0.12v0c2.067-0.1 3.683 0.2 4.85 0.9 1.167 0.7 2.117 1.883 2.85 3.55v0c0.467 1.033 0.993 2.317 1.58 3.85 0.58 1.533 1.187 3.083 1.82 4.65 0.633 1.567 1.25 2.983 1.85 4.25v0h0.15l4.95-13.1c0.333-0.967 0.35-1.567 0.05-1.8-0.3-0.233-0.95-0.35-1.95-0.35v0c-0.3 0-0.55-0.027-0.75-0.08-0.2-0.047-0.317-0.32-0.35-0.82v0c0-0.2 0.06-0.417 0.18-0.65 0.113-0.233 0.287-0.35 0.52-0.35v0c0.967 0.033 1.8 0.067 2.5 0.1 0.7 0.033 1.483 0.05 2.35 0.05v0c0.6 0 1.083-0.01 1.45-0.03 0.367-0.013 0.75-0.03 1.15-0.05 0.4-0.013 0.917-0.037 1.55-0.07v0c0.267 0 0.457 0.117 0.57 0.35 0.12 0.233 0.18 0.45 0.18 0.65v0c-0.033 0.5-0.16 0.773-0.38 0.82-0.213 0.053-0.453 0.08-0.72 0.08v0c-1.1 0-1.973 0.2-2.62 0.6-0.653 0.4-1.213 1.183-1.68 2.35v0c0 0-0.177 0.44-0.53 1.32-0.347 0.887-0.803 2.03-1.37 3.43-0.567 1.4-1.167 2.883-1.8 4.45-0.633 1.567-1.243 3.05-1.83 4.45-0.58 1.4-1.053 2.55-1.42 3.45-0.367 0.9-0.567 1.35-0.6 1.35zM113.8 0.6v0c-2.567 0-4.723-0.55-6.47-1.65-1.753-1.1-3.063-2.567-3.93-4.4-0.867-1.833-1.3-3.833-1.3-6v0c0-1.467 0.26-2.893 0.78-4.28 0.513-1.38 1.253-2.647 2.22-3.8 0.967-1.147 2.133-2.053 3.5-2.72 1.367-0.667 2.917-1 4.65-1v0c3.067 0 5.373 0.79 6.92 2.37 1.553 1.587 2.447 3.597 2.68 6.03v0c0 1.167-0.323 1.933-0.97 2.3-0.653 0.367-1.497 0.55-2.53 0.55v0h-12.15c0 1.933 0.267 3.657 0.8 5.17 0.533 1.52 1.377 2.72 2.53 3.6 1.147 0.887 2.67 1.33 4.57 1.33v0c1.4 0 2.6-0.3 3.6-0.9 1-0.6 1.967-1.65 2.9-3.15v0c0.267-0.333 0.633-0.35 1.1-0.05v0c0.267 0.133 0.433 0.34 0.5 0.62 0.067 0.287 0.033 0.53-0.1 0.73v0c-1.033 1.633-2.333 2.917-3.9 3.85-1.567 0.933-3.367 1.4-5.4 1.4zM107.2-13.9v0h8.15c0.8 0 1.443-0.16 1.93-0.48 0.48-0.313 0.737-0.853 0.77-1.62v0c0-1.433-0.39-2.71-1.17-3.83-0.787-1.113-1.997-1.67-3.63-1.67v0c-1.667 0-3.057 0.667-4.17 2-1.12 1.333-1.747 3.2-1.88 5.6zM126.2 0.15v0c-0.233 0-0.423-0.11-0.57-0.33-0.153-0.213-0.23-0.437-0.23-0.67v0c0.033-0.5 0.16-0.777 0.38-0.83 0.213-0.047 0.47-0.07 0.77-0.07v0c0.933 0 1.573-0.16 1.92-0.48 0.353-0.313 0.553-0.737 0.6-1.27 0.053-0.533 0.08-1.083 0.08-1.65v0-24.4c0-0.6-0.027-1.16-0.08-1.68-0.047-0.513-0.237-0.93-0.57-1.25-0.333-0.313-0.967-0.47-1.9-0.47v0c-0.3 0-0.573-0.043-0.82-0.13-0.253-0.08-0.38-0.37-0.38-0.87v0c0-0.5 0.267-0.8 0.8-0.9v0c1.533-0.233 2.707-0.467 3.52-0.7 0.82-0.233 1.447-0.433 1.88-0.6 0.433-0.167 0.817-0.267 1.15-0.3v0c0.267-0.033 0.493 0.017 0.68 0.15 0.18 0.133 0.27 0.4 0.27 0.8v0 30.35c0 0.567 0.027 1.117 0.08 1.65 0.047 0.533 0.247 0.957 0.6 1.27 0.347 0.32 0.987 0.48 1.92 0.48v0c0.3 0 0.557 0.023 0.77 0.07 0.22 0.053 0.347 0.33 0.38 0.83v0c0 0.233-0.067 0.457-0.2 0.67-0.133 0.22-0.333 0.33-0.6 0.33v0c-0.967-0.067-1.86-0.107-2.68-0.12-0.813-0.02-1.67-0.03-2.57-0.03v0c-0.9 0-1.75 0.01-2.55 0.03-0.8 0.013-1.683 0.053-2.65 0.12z" fill="#375a82" fill-rule="nonzero" stroke="none" stroke-width="1" stroke-linecap="butt" stroke-linejoin="miter" stroke-miterlimit="10" stroke-dasharray="" stroke-dashoffset="0" font-family="none" font-weight="none" font-size="none" text-anchor="none" style="mix-blend-mode: normal" data-fill-palette-color="primary" opacity="1"></path><path transform="translate(0,40.06)" d="M21.4 0.25v0c-0.2 0-0.4-0.04-0.6-0.12-0.2-0.087-0.35-0.213-0.45-0.38v0l-11.25-25.45h-0.15l0.1 19.85c0.033 0.633 0.09 1.24 0.17 1.82 0.087 0.587 0.347 1.07 0.78 1.45 0.433 0.387 1.167 0.58 2.2 0.58v0c0.367 0 0.667 0.033 0.9 0.1 0.233 0.067 0.367 0.383 0.4 0.95v0c0 0.267-0.073 0.517-0.22 0.75-0.153 0.233-0.38 0.35-0.68 0.35v0c-0.7-0.033-1.267-0.057-1.7-0.07-0.433-0.02-0.85-0.037-1.25-0.05-0.4-0.02-0.933-0.03-1.6-0.03v0c-1 0-1.807 0.01-2.42 0.03-0.62 0.013-1.463 0.053-2.53 0.12v0c-0.333 0-0.567-0.117-0.7-0.35-0.133-0.233-0.2-0.483-0.2-0.75v0c0.033-0.567 0.167-0.883 0.4-0.95 0.233-0.067 0.517-0.1 0.85-0.1v0c1.067 0 1.81-0.193 2.23-0.58 0.413-0.38 0.67-0.863 0.77-1.45 0.1-0.58 0.15-1.187 0.15-1.82v0l0.1-19.85c0-1.067-0.117-1.86-0.35-2.38-0.233-0.513-0.6-0.88-1.1-1.1-0.5-0.213-1.133-0.387-1.9-0.52v0c-0.467-0.1-0.79-0.183-0.97-0.25-0.187-0.067-0.28-0.367-0.28-0.9v0c0-0.567 0.2-0.877 0.6-0.93 0.4-0.047 0.867-0.07 1.4-0.07v0c1.633 0 3.077 0.133 4.33 0.4 1.247 0.267 2.337 0.773 3.27 1.52 0.933 0.753 1.7 1.88 2.3 3.38v0l8.6 19.3h0.15l9.85-24.3h2.85c1 0 1.977-0.017 2.93-0.05 0.947-0.033 1.953-0.067 3.02-0.1v0c0.333 0 0.567 0.117 0.7 0.35 0.133 0.233 0.2 0.483 0.2 0.75v0c-0.033 0.567-0.167 0.883-0.4 0.95-0.233 0.067-0.517 0.1-0.85 0.1v0c-1.033 0-1.773 0.19-2.22 0.57-0.453 0.387-0.73 0.87-0.83 1.45-0.1 0.587-0.167 1.197-0.2 1.83v0 19.85c0.033 0.633 0.1 1.24 0.2 1.82 0.1 0.587 0.377 1.07 0.83 1.45 0.447 0.387 1.187 0.58 2.22 0.58v0c0.333 0 0.617 0.033 0.85 0.1 0.233 0.067 0.367 0.383 0.4 0.95v0c0 0.267-0.067 0.517-0.2 0.75-0.133 0.233-0.367 0.35-0.7 0.35v0c-1.067-0.067-2.083-0.107-3.05-0.12-0.967-0.02-1.95-0.03-2.95-0.03v0c-1.933 0-3.983 0.05-6.15 0.15v0c-0.333 0-0.567-0.117-0.7-0.35-0.133-0.233-0.2-0.483-0.2-0.75v0c0.033-0.567 0.167-0.883 0.4-0.95 0.233-0.067 0.517-0.1 0.85-0.1v0c1.067 0 1.817-0.193 2.25-0.58 0.433-0.38 0.71-0.863 0.83-1.45 0.113-0.58 0.17-1.187 0.17-1.82v0-19.85h-0.15l-10.3 25.45c-0.067 0.167-0.2 0.293-0.4 0.38-0.2 0.08-0.4 0.12-0.6 0.12zM51.3 0.6v0c-2.033 0-3.657-0.583-4.87-1.75-1.22-1.167-1.83-2.567-1.83-4.2v0c0-1.7 0.443-3.033 1.33-4 0.88-0.967 2.047-1.683 3.5-2.15 1.447-0.467 3.03-0.783 4.75-0.95 1.713-0.167 3.387-0.3 5.02-0.4v0-3.95c0-1.567-0.39-2.793-1.17-3.68-0.787-0.88-2.113-1.32-3.98-1.32v0c-0.933 0-1.807 0.3-2.62 0.9-0.82 0.6-1.23 1.467-1.23 2.6v0c0 0.533 0.133 0.983 0.4 1.35 0.267 0.367 0.533 0.65 0.8 0.85 0.267 0.2 0.4 0.333 0.4 0.4v0c0 0.133-0.19 0.373-0.57 0.72-0.387 0.353-0.913 0.53-1.58 0.53v0c-1.033 0-1.833-0.383-2.4-1.15-0.567-0.767-0.85-1.617-0.85-2.55v0c0-1.267 0.393-2.267 1.18-3 0.78-0.733 1.787-1.267 3.02-1.6 1.233-0.333 2.483-0.5 3.75-0.5v0c1.5 0 2.96 0.183 4.38 0.55 1.413 0.367 2.58 1.067 3.5 2.1 0.913 1.033 1.37 2.583 1.37 4.65v0 11.65c0.033 0.333 0.117 0.733 0.25 1.2 0.133 0.467 0.393 0.873 0.78 1.22 0.38 0.353 0.903 0.53 1.57 0.53v0c0.233 0 0.417 0.04 0.55 0.12 0.133 0.087 0.2 0.313 0.2 0.68v0c0 0.3-0.167 0.533-0.5 0.7-0.333 0.167-0.717 0.283-1.15 0.35-0.433 0.067-0.8 0.1-1.1 0.1v0c-1.233 0-2.333-0.36-3.3-1.08-0.967-0.713-1.533-1.703-1.7-2.97v0c-0.733 1.333-1.823 2.34-3.27 3.02-1.453 0.687-2.997 1.03-4.63 1.03zM52.9-2.1v0c1.133 0 2.177-0.283 3.13-0.85 0.947-0.567 1.713-1.343 2.3-2.33 0.58-0.98 0.87-2.07 0.87-3.27v0-2.85c-3.433 0.233-5.883 0.783-7.35 1.65-1.467 0.867-2.2 2.283-2.2 4.25v0c0 2.267 1.083 3.4 3.25 3.4zM70.15 0.15v0c-0.233 0-0.423-0.11-0.57-0.33-0.153-0.213-0.23-0.437-0.23-0.67v0c0.067-0.5 0.2-0.777 0.4-0.83 0.2-0.047 0.467-0.07 0.8-0.07v0c0.933 0 1.567-0.16 1.9-0.48 0.333-0.313 0.527-0.737 0.58-1.27 0.047-0.533 0.07-1.083 0.07-1.65v0-11.45c0-0.6-0.023-1.16-0.07-1.68-0.053-0.513-0.247-0.93-0.58-1.25-0.333-0.313-0.967-0.47-1.9-0.47v0c-0.3 0-0.573-0.043-0.82-0.13-0.253-0.08-0.38-0.37-0.38-0.87v0c0-0.5 0.267-0.8 0.8-0.9v0c1.533-0.233 2.707-0.467 3.52-0.7 0.82-0.233 1.44-0.433 1.86-0.6 0.413-0.167 0.787-0.267 1.12-0.3v0c0.267-0.033 0.493 0.017 0.68 0.15 0.18 0.133 0.27 0.4 0.27 0.8v0 3.15h0.15c0.667-0.633 1.35-1.243 2.05-1.83 0.7-0.58 1.527-1.063 2.48-1.45 0.947-0.38 2.12-0.57 3.52-0.57v0c2.267 0 4.067 0.683 5.4 2.05 1.333 1.367 2 3.167 2 5.4v0 10.65c0 0.567 0.027 1.117 0.08 1.65 0.047 0.533 0.247 0.957 0.6 1.27 0.347 0.32 0.987 0.48 1.92 0.48v0c0.3 0 0.56 0.023 0.78 0.07 0.213 0.053 0.337 0.33 0.37 0.83v0c0 0.233-0.067 0.457-0.2 0.67-0.133 0.22-0.333 0.33-0.6 0.33v0c-0.967-0.067-1.857-0.107-2.67-0.12-0.82-0.02-1.68-0.03-2.58-0.03v0c-0.9 0-1.75 0.01-2.55 0.03-0.8 0.013-1.683 0.053-2.65 0.12v0c-0.233 0-0.423-0.11-0.57-0.33-0.153-0.213-0.23-0.437-0.23-0.67v0c0.033-0.5 0.16-0.777 0.38-0.83 0.213-0.047 0.47-0.07 0.77-0.07v0c0.933 0 1.577-0.16 1.93-0.48 0.347-0.313 0.547-0.737 0.6-1.27 0.047-0.533 0.07-1.083 0.07-1.65v0-10.6c0-1.1-0.24-2-0.72-2.7-0.487-0.7-1.097-1.217-1.83-1.55-0.733-0.333-1.483-0.5-2.25-0.5v0c-1.133 0-2.133 0.207-3 0.62-0.867 0.42-1.567 0.897-2.1 1.43-0.533 0.533-0.9 1-1.1 1.4v0 11.9c0 0.567 0.027 1.117 0.08 1.65 0.047 0.533 0.247 0.957 0.6 1.27 0.347 0.32 0.987 0.48 1.92 0.48v0c0.3 0 0.56 0.023 0.78 0.07 0.213 0.053 0.337 0.33 0.37 0.83v0c0 0.233-0.067 0.457-0.2 0.67-0.133 0.22-0.333 0.33-0.6 0.33v0c-0.967-0.067-1.857-0.107-2.67-0.12-0.82-0.02-1.68-0.03-2.58-0.03v0c-0.9 0-1.75 0.01-2.55 0.03-0.8 0.013-1.683 0.053-2.65 0.12zM100.1 0.15v0c-0.233 0-0.423-0.11-0.57-0.33-0.153-0.213-0.23-0.437-0.23-0.67v0c0.067-0.5 0.2-0.777 0.4-0.83 0.2-0.047 0.467-0.07 0.8-0.07v0c0.933 0 1.567-0.16 1.9-0.48 0.333-0.313 0.527-0.737 0.58-1.27 0.047-0.533 0.07-1.083 0.07-1.65v0-11.45c0-0.6-0.023-1.16-0.07-1.68-0.053-0.513-0.247-0.93-0.58-1.25-0.333-0.313-0.967-0.47-1.9-0.47v0c-0.3 0-0.573-0.043-0.82-0.13-0.253-0.08-0.38-0.37-0.38-0.87v0c0-0.5 0.267-0.8 0.8-0.9v0c1.533-0.233 2.71-0.467 3.53-0.7 0.813-0.233 1.437-0.433 1.87-0.6 0.433-0.167 0.817-0.267 1.15-0.3v0c0.267-0.033 0.493 0.017 0.68 0.15 0.18 0.133 0.27 0.4 0.27 0.8v0 17.4c0 0.567 0.027 1.117 0.08 1.65 0.047 0.533 0.247 0.957 0.6 1.27 0.347 0.32 0.987 0.48 1.92 0.48v0c0.3 0 0.56 0.023 0.78 0.07 0.213 0.053 0.337 0.33 0.37 0.83v0c0 0.233-0.067 0.457-0.2 0.67-0.133 0.22-0.333 0.33-0.6 0.33v0c-0.967-0.067-1.857-0.107-2.67-0.12-0.82-0.02-1.68-0.03-2.58-0.03v0c-0.9 0-1.75 0.01-2.55 0.03-0.8 0.013-1.683 0.053-2.65 0.12zM105.05-29.05v0c-0.933 0-1.717-0.293-2.35-0.88-0.633-0.58-0.95-1.303-0.95-2.17v0c0-0.767 0.383-1.45 1.15-2.05 0.767-0.6 1.633-0.9 2.6-0.9v0c0.833 0 1.517 0.29 2.05 0.87 0.533 0.587 0.8 1.33 0.8 2.23v0c0 0.8-0.317 1.483-0.95 2.05-0.633 0.567-1.417 0.85-2.35 0.85zM120.85 0.6v0c-2.033 0-3.657-0.583-4.87-1.75-1.22-1.167-1.83-2.567-1.83-4.2v0c0-1.7 0.443-3.033 1.33-4 0.88-0.967 2.047-1.683 3.5-2.15 1.447-0.467 3.03-0.783 4.75-0.95 1.713-0.167 3.387-0.3 5.02-0.4v0-3.95c0-1.567-0.39-2.793-1.17-3.68-0.787-0.88-2.113-1.32-3.98-1.32v0c-0.933 0-1.807 0.3-2.62 0.9-0.82 0.6-1.23 1.467-1.23 2.6v0c0 0.533 0.133 0.983 0.4 1.35 0.267 0.367 0.533 0.65 0.8 0.85 0.267 0.2 0.4 0.333 0.4 0.4v0c0 0.133-0.19 0.373-0.57 0.72-0.387 0.353-0.913 0.53-1.58 0.53v0c-1.033 0-1.833-0.383-2.4-1.15-0.567-0.767-0.85-1.617-0.85-2.55v0c0-1.267 0.393-2.267 1.18-3 0.78-0.733 1.787-1.267 3.02-1.6 1.233-0.333 2.483-0.5 3.75-0.5v0c1.5 0 2.96 0.183 4.38 0.55 1.413 0.367 2.58 1.067 3.5 2.1 0.913 1.033 1.37 2.583 1.37 4.65v0 11.65c0.033 0.333 0.117 0.733 0.25 1.2 0.133 0.467 0.393 0.873 0.78 1.22 0.38 0.353 0.903 0.53 1.57 0.53v0c0.233 0 0.417 0.04 0.55 0.12 0.133 0.087 0.2 0.313 0.2 0.68v0c0 0.3-0.167 0.533-0.5 0.7-0.333 0.167-0.717 0.283-1.15 0.35-0.433 0.067-0.8 0.1-1.1 0.1v0c-1.233 0-2.333-0.36-3.3-1.08-0.967-0.713-1.533-1.703-1.7-2.97v0c-0.733 1.333-1.823 2.34-3.27 3.02-1.453 0.687-2.997 1.03-4.63 1.03zM122.45-2.1v0c1.133 0 2.177-0.283 3.13-0.85 0.947-0.567 1.713-1.343 2.3-2.33 0.58-0.98 0.87-2.07 0.87-3.27v0-2.85c-3.433 0.233-5.883 0.783-7.35 1.65-1.467 0.867-2.2 2.283-2.2 4.25v0c0 2.267 1.083 3.4 3.25 3.4z" fill="#375a82" fill-rule="nonzero" stroke="none" stroke-width="1" stroke-linecap="butt" stroke-linejoin="miter" stroke-miterlimit="10" stroke-dasharray="" stroke-dashoffset="0" font-family="none" font-weight="none" font-size="none" text-anchor="none" style="mix-blend-mode: normal" data-fill-palette-color="primary" opacity="1"></path></g></svg></g></svg></g></svg></g></svg></g><g transform="matrix(1,0,0,1,0,8.083854218671974)"><svg viewBox="0 0 210.03669495756364 184.83229156265602" height="184.83229156265602" width="210.03669495756364"><g><svg xmlns="http://www.w3.org/2000/svg" xmlns:xlink="http://www.w3.org/1999/xlink" version="1.1" x="0" y="0" viewBox="0 6 100 88" enable-background="new 0 0 100 100" xml:space="preserve" height="184.83229156265602" width="210.03669495756364" class="icon-icon-0" data-fill-palette-color="accent" id="icon-0"><g fill="#95b4a2" data-fill-palette-color="accent"><path d="M87.443 45.365c-0.537-1.955-5.529-2.123-7.537-1.454C72.602 46.34 65.297 48.77 57.991 51.2L32.634 41.074l-2.676 2.854 10.852 13.03c-6.995 2.418-19.806 6.884-22.131 7.655-2.001 0.666 12.936 2.785 16.36 2.217 0 0 26.313-8.582 37.945-12.453 2.988-0.994 5.979-1.988 8.972-2.984C83.956 50.727 88.025 47.484 87.443 45.365z" fill="#95b4a2" data-fill-palette-color="accent"></path><polygon points="14.533,55.344 12.5,57.221 17.89,63.51 25.702,60.758  " fill="#95b4a2" data-fill-palette-color="accent"></polygon></g><path d="M94 6H6c-3.313 0-6 2.687-6 6v76c0 3.313 2.687 6 6 6h88c3.314 0 6-2.688 6-6V12C100 8.686 97.314 6 94 6zM79 10c2.205 0 4 1.794 4 4s-1.795 4-4 4-4-1.794-4-4S76.795 10 79 10zM68 10c2.205 0 4 1.794 4 4s-1.795 4-4 4-4-1.794-4-4S65.795 10 68 10zM94 88H6V22h88V88zM90 18c-2.205 0-4-1.794-4-4s1.795-4 4-4 4 1.794 4 4S92.205 18 90 18z" fill="#95b4a2" data-fill-palette-color="accent"></path></svg></g></svg></g></svg></g><defs></defs></svg><rect width="395.52" height="132.07567307437117" fill="none" stroke="none" visibility="hidden"></rect></g></svg></g></svg>